<svg viewBox="0 0 49 49" fill="none" xmlns="http://www.w3.org/2000/svg"><g clip-path="url(#a)" stroke="#000" stroke-width="2" stroke-linecap="round" stroke-linejoin="round"><path d="M14.25 26.45h-2a4 4 0 0 0-4 4v6a4 4 0 0 0 4 4h2a4 4 0 0 0 4-4v-6a4 4 0 0 0-4-4Zm22 0h-2a4 4 0 0 0-4 4v6a4 4 0 0 0 4 4h2a4 4 0 0 0 4-4v-6a4 4 0 0 0-4-4Z"/><path d="M8.25 30.45v-6a16 16 0 1 1 32 0v6"/></g><defs><clipPath id="a"><path fill="#fff" transform="translate(.25 .445)" d="M0 0h48v48h-48z"/></clipPath></defs></svg>