<svg viewBox="0 0 24 25" fill="none" xmlns="http://www.w3.org/2000/svg"><path d="M12 22.87c-2.14 0-3.69 0-4.89-.12a5.66 5.66 0 0 1-2.56-.71 5.45 5.45 0 0 1-1.71-1.72c-.39-.6-.6-1.37-.72-2.56a56.1 56.1 0 0 1-.12-4.89c0-2.14 0-3.69.12-4.89a5.5 5.5 0 0 1 .72-2.56 5.45 5.45 0 0 1 1.71-1.71c.61-.38 1.37-.6 2.56-.72a56.1 56.1 0 0 1 4.89-.12c2.14 0 3.69 0 4.89.12 1.19.11 1.95.34 2.56.72.7.43 1.28 1.02 1.71 1.71.39.61.6 1.37.72 2.56.12 1.2.12 2.75.12 4.9 0 2.14 0 3.68-.12 4.88a5.66 5.66 0 0 1-.72 2.56 5.45 5.45 0 0 1-1.71 1.72c-.61.38-1.37.6-2.56.71-1.2.12-2.75.12-4.89.12Z" fill="#fff" stroke="#fff" stroke-width="2"/><path d="M12 17.87a4 4 0 1 0 0-8 4 4 0 0 0 0 8Z" fill="#fff" stroke="#000" stroke-width="2"/><path d="M16.88 9.12a1.13 1.13 0 1 0 0-2.25 1.13 1.13 0 0 0 0 2.25Z" fill="#000"/></svg>