<svg viewBox="0 0 24 25" fill="none" xmlns="http://www.w3.org/2000/svg"><path fill-rule="evenodd" clip-rule="evenodd" d="M24 5.24c-.88.4-1.83.67-2.83.8a5.04 5.04 0 0 0 2.17-2.8c-.95.58-2 1-3.13 1.23a4.86 4.86 0 0 0-3.6-1.6 4.99 4.99 0 0 0-4.79 6.2 13.86 13.86 0 0 1-10.15-5.28 5.14 5.14 0 0 0 1.52 6.75 4.84 4.84 0 0 1-2.23-.63v.06c0 2.45 1.7 4.49 3.95 4.95a4.7 4.7 0 0 1-2.22.09c.63 2 2.44 3.46 4.6 3.5a9.72 9.72 0 0 1-7.29 2.1 13.7 13.7 0 0 0 7.55 2.26c9.06 0 14-7.69 14-14.36v-.66c.96-.7 1.8-1.6 2.45-2.61Z" fill="#fff"/></svg>