<svg xmlns="http://www.w3.org/2000/svg"><style>:root svg:not(:target){display:none}</style><svg viewBox="0 0 32 33" fill="none" id="Arrow"><path d="M21.33 28.11a.99.99 0 0 1-.7-.3l-10.67-10.66a1 1 0 0 1 0-1.41l10.67-10.67a1 1 0 0 1 1.41 1.42l-9.96 9.96 9.96 9.96a1 1 0 0 1-.7 1.7Z" fill="#000"></path></svg><svg viewBox="0 0 40 40" fill="none" id="Burger"><path fill-rule="evenodd" clip-rule="evenodd" d="M32.5 13.75h-25v-2.5h25v2.5Zm0 7.5h-25v-2.5h25v2.5Zm0 7.5h-25v-2.5h25v2.5Z" fill="#080341"></path></svg><svg viewBox="0 0 49 49" fill="none" id="Cameras"><g clip-path="url(#Cameras_0)" stroke="#000" stroke-width="2" stroke-linecap="round" stroke-linejoin="round"><path d="M10.75 14.45h2a4 4 0 0 0 4-4 2 2 0 0 1 2-2h12a2 2 0 0 1 2 2 4 4 0 0 0 4 4h2a4 4 0 0 1 4 4v18a4 4 0 0 1-4 4h-28a4 4 0 0 1-4-4v-18a4 4 0 0 1 4-4"></path><path d="M24.75 32.45a6 6 0 1 0 0-12 6 6 0 0 0 0 12Z"></path></g><defs><clipPath id="Cameras_0"><path fill="#fff" transform="translate(.75 .445)" d="M0 0h48v48h-48z"></path></clipPath></defs></svg><svg viewBox="0 0 32 32" fill="none" id="Cart"><path fill="#fff" d="M0 0h32v32h-32z"></path><path d="M3 5h4l3 17h16m-16-5.33h15.59a.5.5 0 0 0 .5-.4l1.8-9a.5.5 0 0 0-.5-.6h-19.39m4 19.33a1 1 0 1 1-2 0 1 1 0 0 1 2 0Zm14 0a1 1 0 1 1-2 0 1 1 0 0 1 2 0Z" stroke="#000" stroke-width="1.5" stroke-linecap="round" stroke-linejoin="round"></path></svg><svg viewBox="0 0 49 49" fill="none" id="Computers"><g clip-path="url(#Computers_0)" stroke="#000" stroke-width="2" stroke-linecap="round"><path d="M40.75 8.45h-32a2 2 0 0 0-2 2v20c0 1.1.9 2 2 2h32a2 2 0 0 0 2-2v-20a2 2 0 0 0-2-2Zm-26 32h20m-16-8v8m12-8v8" stroke-linejoin="round"></path><path d="M7.6 27.87h34.3"></path></g><defs><clipPath id="Computers_0"><path fill="#fff" transform="translate(.75 .445)" d="M0 0h48v48h-48z"></path></clipPath></defs></svg><svg viewBox="0 0 25 25" fill="none" id="Facebook"><g clip-path="url(#Facebook_0)"><path d="M13.94 6.6v2.18h3.9l-.42 3.49h-3.48v12.58h-4.63v-12.58h-2.41v-3.49h2.41v-2.64c0-1.3-.1-1.92.46-2.93.55-1.01 2.11-2.35 4.82-2.31 2.7.03 3.84.29 3.84.29l-.58 3.71s-1.73-.45-2.58-.29c-.84.16-1.33.69-1.33 1.99Z" fill="#fff"></path></g><defs><clipPath id="Facebook_0"><path fill="#fff" transform="translate(.667 .872)" d="M0 0h24v24h-24z"></path></clipPath></defs></svg><svg viewBox="0 0 32 32" fill="none" id="Favorites"><path d="M11 7c-2.76 0-5 2.22-5 4.95 0 2.2.88 7.45 9.49 12.74a.98.98 0 0 0 1.02 0c8.61-5.3 9.49-10.53 9.49-12.74a4.98 4.98 0 0 0-5-4.95c-2.76 0-5 3-5 3s-2.24-3-5-3Z" stroke="#000" stroke-width="1.5" stroke-linecap="round" stroke-linejoin="round"></path></svg><svg viewBox="0 0 49 49" fill="none" id="Gaming"><g clip-path="url(#Gaming_0)" stroke="#000" stroke-linecap="round" stroke-linejoin="round"><path d="M40.25 12.45h-32a4 4 0 0 0-4 4v16a4 4 0 0 0 4 4h32a4 4 0 0 0 4-4v-16a4 4 0 0 0-4-4Zm-28 12h8m-4-4v8" stroke-width="2"></path><path d="M30.25 22.45v.02m6 3.98v.02" stroke-width="3"></path></g><defs><clipPath id="Gaming_0"><path fill="#fff" transform="translate(.25 .445)" d="M0 0h48v48h-48z"></path></clipPath></defs></svg><svg viewBox="0 0 49 49" fill="none" id="Headphones"><g clip-path="url(#Headphones_0)" stroke="#000" stroke-width="2" stroke-linecap="round" stroke-linejoin="round"><path d="M14.25 26.45h-2a4 4 0 0 0-4 4v6a4 4 0 0 0 4 4h2a4 4 0 0 0 4-4v-6a4 4 0 0 0-4-4Zm22 0h-2a4 4 0 0 0-4 4v6a4 4 0 0 0 4 4h2a4 4 0 0 0 4-4v-6a4 4 0 0 0-4-4Z"></path><path d="M8.25 30.45v-6a16 16 0 1 1 32 0v6"></path></g><defs><clipPath id="Headphones_0"><path fill="#fff" transform="translate(.25 .445)" d="M0 0h48v48h-48z"></path></clipPath></defs></svg><svg viewBox="0 0 24 25" fill="none" id="Instagram"><path d="M12 22.87c-2.14 0-3.69 0-4.89-.12a5.66 5.66 0 0 1-2.56-.71 5.45 5.45 0 0 1-1.71-1.72c-.39-.6-.6-1.37-.72-2.56a56.1 56.1 0 0 1-.12-4.89c0-2.14 0-3.69.12-4.89a5.5 5.5 0 0 1 .72-2.56 5.45 5.45 0 0 1 1.71-1.71c.61-.38 1.37-.6 2.56-.72a56.1 56.1 0 0 1 4.89-.12c2.14 0 3.69 0 4.89.12 1.19.11 1.95.34 2.56.72.7.43 1.28 1.02 1.71 1.71.39.61.6 1.37.72 2.56.12 1.2.12 2.75.12 4.9 0 2.14 0 3.68-.12 4.88a5.66 5.66 0 0 1-.72 2.56 5.45 5.45 0 0 1-1.71 1.72c-.61.38-1.37.6-2.56.71-1.2.12-2.75.12-4.89.12Z" fill="#fff" stroke="#fff" stroke-width="2"></path><path d="M12 17.87a4 4 0 1 0 0-8 4 4 0 0 0 0 8Z" fill="#fff" stroke="#000" stroke-width="2"></path><path d="M16.88 9.12a1.13 1.13 0 1 0 0-2.25 1.13 1.13 0 0 0 0 2.25Z" fill="#000"></path></svg><svg viewBox="0 0 33 33" fill="none" id="Like"><path d="m6.43 18.99 9.39 8.81c.32.3.48.46.68.46.2 0 .36-.15.68-.46l9.39-8.81a6.94 6.94 0 0 0 .73-9.31l-.42-.53a5.75 5.75 0 0 0-9.73 1.05.72.72 0 0 1-1.3 0 5.75 5.75 0 0 0-9.73-1.05l-.42.53a6.94 6.94 0 0 0 .73 9.31Z" stroke="#919191" stroke-opacity=".77" stroke-width="1.4"></path></svg><svg viewBox="0 0 49 49" fill="none" id="Phones"><g clip-path="url(#Phones_0)" stroke="#000"><path d="M34.13 5.7h-18.76a2.34 2.34 0 0 0-2.34 2.34v32.81c0 1.3 1.05 2.35 2.35 2.35h18.74c1.3 0 2.35-1.05 2.35-2.35v-32.81c0-1.3-1.05-2.34-2.34-2.34Z" stroke-width="2" stroke-linecap="round" stroke-linejoin="round"></path><path d="M22.75 6.45h4.69" stroke-width="3" stroke-linecap="round" stroke-linejoin="round"></path><path d="M24.75 38.16v.03" stroke-width="2.5" stroke-linecap="round" stroke-linejoin="round"></path><path stroke-width="2" d="M13.75 34.45h22"></path></g><defs><clipPath id="Phones_0"><path fill="#fff" transform="translate(.75 .445)" d="M0 0h48v48h-48z"></path></clipPath></defs></svg><svg viewBox="0 0 25 24" fill="none" id="Search"><path d="m20.93 20-3.77-3.78m2.09-5.06a7.16 7.16 0 1 1-14.32 0 7.16 7.16 0 0 1 14.32 0v0Z" stroke="#989898" stroke-width="1.5" stroke-linecap="round"></path></svg><svg viewBox="0 0 49 49" fill="none" id="Smart-Watches"><g clip-path="url(#Smart-Watches_0)" stroke="#000" stroke-width="2" stroke-linecap="round"><path d="M30.25 12.45h-12a6 6 0 0 0-6 6v12a6 6 0 0 0 6 6h12a6 6 0 0 0 6-6v-12a6 6 0 0 0-6-6Zm-12 24v6h12v-6m-12-24v-6h12v6" stroke-linejoin="round"></path><path d="M20.96 18.45v11m4-6v6m4-8v8"></path></g><defs><clipPath id="Smart-Watches_0"><path fill="#fff" transform="translate(.25 .445)" d="M0 0h48v48h-48z"></path></clipPath></defs></svg><svg viewBox="0 0 25 25" fill="none" id="Tiktok"><path d="M18.16 5.9a6.11 6.11 0 0 1-1.47-4.14l-3.7-.09v15.19c.06 4.7-7.35 4.58-6.76-.6a3.45 3.45 0 0 1 4.54-2.62v-3.77a7.14 7.14 0 0 0-8.3 7c.37 9.43 13.88 9.43 14.26 0-.1-.33-.04-6.6-.06-7.14a10 10 0 0 0 5.62 1.5v-3.89c-1.83 0-3.23-.48-4.13-1.43Z" fill="#fff"></path></svg><svg viewBox="0 0 24 25" fill="none" id="Twitter"><path fill-rule="evenodd" clip-rule="evenodd" d="M24 5.24c-.88.4-1.83.67-2.83.8a5.04 5.04 0 0 0 2.17-2.8c-.95.58-2 1-3.13 1.23a4.86 4.86 0 0 0-3.6-1.6 4.99 4.99 0 0 0-4.79 6.2 13.86 13.86 0 0 1-10.15-5.28 5.14 5.14 0 0 0 1.52 6.75 4.84 4.84 0 0 1-2.23-.63v.06c0 2.45 1.7 4.49 3.95 4.95a4.7 4.7 0 0 1-2.22.09c.63 2 2.44 3.46 4.6 3.5a9.72 9.72 0 0 1-7.29 2.1 13.7 13.7 0 0 0 7.55 2.26c9.06 0 14-7.69 14-14.36v-.66c.96-.7 1.8-1.6 2.45-2.61Z" fill="#fff"></path></svg><svg viewBox="0 0 32 32" fill="none" id="User"><path d="M24 27v-2.67c0-1.41-.48-2.77-1.33-3.77-.85-1-2-1.56-3.2-1.56h-7.94c-1.2 0-2.35.56-3.2 1.56a5.85 5.85 0 0 0-1.33 3.77v2.67m14-17.5a4.5 4.5 0 1 1-9 0 4.5 4.5 0 0 1 9 0Z" stroke="#000" stroke-width="1.5" stroke-linecap="round" stroke-linejoin="round"></path></svg></svg>